<?xml version="1.0" encoding="utf-8"?>
<!-- Generator: Adobe Illustrator 24.1.1, SVG Export Plug-In . SVG Version: 6.00 Build 0)  -->
<svg version="1.1" id="Camada_1" xmlns="http://www.w3.org/2000/svg" xmlns:xlink="http://www.w3.org/1999/xlink" x="0px" y="0px"
	 viewBox="0 0 138.9 26.1" style="enable-background:new 0 0 138.9 26.1;" xml:space="preserve">
<style type="text/css">
	.st0{fill:#FFFFFF;}
</style>
<g>
	<g>
		<path class="st0" d="M33.4,2.3c0-1.3,0.7-2,2.2-2c1.5,0,2.2,0.7,2.2,2c0,0.6-0.2,1.1-0.6,1.5c-0.4,0.4-0.9,0.5-1.7,0.5
			C34.1,4.3,33.4,3.6,33.4,2.3z M36.6,21.1h-2c-0.6,0-1.1-0.5-1.1-1.1V7.2c0-0.6,0.5-1.1,1.1-1.1h2c0.6,0,1.1,0.5,1.1,1.1V20
			C37.6,20.6,37.2,21.1,36.6,21.1z"/>
		<path class="st0" d="M50.9,5V1.3c0-0.6,0.5-1.1,1.1-1.1h2c0.6,0,1.1,0.5,1.1,1.1V20c0,0.6-0.5,1.1-1.1,1.1h-1.3
			c-0.4,0-0.8-0.3-1-0.7l-0.5-1.3h-0.2c-0.9,1.5-2.3,2.2-4.2,2.2c-1.8,0-3.1-0.7-4.1-2c-1-1.4-1.5-3.3-1.5-5.7
			c0-2.5,0.5-4.4,1.5-5.7c1-1.4,2.4-2.1,4.2-2.1c1.9,0,3.1,0.7,4.1,2.2 M48.1,18.1c1,0,1.8-0.3,2.3-0.9c0.5-0.6,0.8-1.6,0.8-3.1
			v-0.4c0-1.6-0.2-2.8-0.7-3.5c-0.5-0.7-1.3-1-2.4-1c-0.9,0-1.6,0.4-2.1,1.2c-0.5,0.8-0.8,1.9-0.8,3.4s0.3,2.6,0.8,3.3
			C46.4,17.7,47.1,18.1,48.1,18.1z"/>
		<path class="st0" d="M66,21.3c-2.4,0-4.3-0.7-5.6-2c-1.4-1.3-2-3.2-2-5.6c0-2.5,0.6-4.4,1.9-5.8c1.3-1.4,3-2.1,5.2-2.1
			c2.1,0,3.8,0.6,4.9,1.8c1.2,1.2,1.8,2.9,1.8,5v1.1c0,0.5-0.4,0.9-0.9,0.9h-8.8c0,1.2,0.4,2.1,1,2.7c0.6,0.7,1.5,1,2.7,1
			c0.9,0,1.8-0.1,2.6-0.3c0.4-0.1,0.9-0.2,1.4-0.4c0.6-0.2,1.1,0.2,1.1,0.8v1.3c0,0.3-0.2,0.6-0.5,0.8c-0.6,0.2-1.2,0.4-1.8,0.6
			C68.2,21.2,67.2,21.3,66,21.3z M65.4,8.7c-0.9,0-1.5,0.3-2,0.8c-0.3,0.3-0.5,0.8-0.7,1.3c-0.2,0.5,0.3,1.1,0.8,1.1h3.8
			c0.6,0,1-0.5,0.8-1.1c-0.1-0.5-0.3-0.9-0.7-1.3C67,9,66.3,8.7,65.4,8.7z"/>
		<path class="st0" d="M84.9,21.1l-0.8-2H84c-0.7,0.9-1.4,1.5-2.1,1.8c-0.7,0.3-1.7,0.5-2.8,0.5c-1.4,0-2.6-0.4-3.4-1.2
			c-0.8-0.8-1.2-2-1.2-3.5c0-1.6,0.6-2.8,1.7-3.5c1.1-0.8,2.8-1.2,5-1.3l1.9-0.1c0.4,0,0.7-0.3,0.7-0.7v0c0-1.5-0.8-2.3-2.3-2.3
			c-1,0-2.2,0.3-3.5,0.8c-0.4,0.2-0.9,0-1.1-0.4l-0.6-1.3c-0.2-0.4,0-1,0.4-1.2c1.5-0.6,3.1-1,4.9-1c2,0,3.5,0.4,4.6,1.3
			s1.6,2.2,1.6,4v10H84.9z M83.7,15c0-0.5-0.4-0.9-0.9-0.9l-0.7,0c-1.2,0-2.1,0.2-2.6,0.6c-0.6,0.4-0.9,1-0.9,1.8
			c0,1.2,0.7,1.7,2,1.7c0.9,0,1.7-0.3,2.3-0.8c0.6-0.5,0.8-1.3,0.8-2.2V15z"/>
		<path class="st0" d="M96.1,8.1c1-1.5,2.4-2.2,4.2-2.2c1.8,0,3.1,0.7,4.1,2.1c1,1.4,1.5,3.3,1.5,5.7c0,2.5-0.5,4.4-1.5,5.7
			c-1,1.4-2.4,2-4.2,2c-1.8,0-3.1-0.6-4.1-1.9h-0.3l-0.4,1c-0.2,0.4-0.6,0.7-1,0.7H93c-0.6,0-1.1-0.5-1.1-1.1V1.3
			c0-0.6,0.5-1.1,1.1-1.1h2c0.6,0,1.1,0.5,1.1,1.1v3.8 M99,9.1c-1,0-1.7,0.3-2.2,0.9c-0.5,0.6-0.7,1.6-0.7,3.1v0.4
			c0,1.6,0.2,2.8,0.7,3.5c0.5,0.7,1.2,1,2.3,1c0.8,0,1.5-0.4,2-1.2c0.5-0.8,0.7-1.9,0.7-3.4s-0.2-2.6-0.7-3.3
			C100.5,9.5,99.9,9.1,99,9.1z"/>
		<path class="st0" d="M122.9,13.6c0,2.4-0.6,4.3-1.9,5.7c-1.3,1.4-3.1,2.1-5.4,2.1c-1.4,0-2.7-0.3-3.8-0.9
			c-1.1-0.6-1.9-1.5-2.5-2.7c-0.6-1.2-0.9-2.5-0.9-4.1c0-2.4,0.6-4.3,1.9-5.7c1.3-1.4,3.1-2,5.4-2c1.4,0,2.7,0.3,3.8,0.9
			c1.1,0.6,1.9,1.5,2.5,2.7C122.6,10.6,122.9,12,122.9,13.6z M112.6,13.6c0,1.5,0.2,2.6,0.7,3.4c0.5,0.8,1.3,1.1,2.4,1.1
			c1.1,0,1.9-0.4,2.3-1.1c0.5-0.8,0.7-1.9,0.7-3.4c0-1.5-0.2-2.6-0.7-3.3c-0.5-0.7-1.3-1.1-2.4-1.1c-1.1,0-1.9,0.4-2.4,1.1
			C112.8,11,112.6,12.1,112.6,13.6z"/>
		<path class="st0" d="M129.2,13.2l-3.6-5.4c-0.5-0.7,0-1.6,0.9-1.6h2.2c0.3,0,0.6,0.2,0.7,0.4l2.3,3.8c0.2,0.3,0.6,0.3,0.7,0
			l2.3-3.8c0.2-0.3,0.4-0.4,0.7-0.4h2.2c0.8,0,1.4,0.9,0.9,1.7l-3.6,5.4c-0.1,0.1-0.1,0.3,0,0.5l3.8,5.7c0.5,0.7,0,1.7-0.9,1.7h-2.2
			c-0.3,0-0.6-0.2-0.7-0.4l-2.5-4.1c-0.2-0.3-0.6-0.3-0.7,0l-2.5,4.1c-0.2,0.3-0.4,0.4-0.7,0.4h-2.2c-0.8,0-1.4-0.9-0.9-1.7l3.8-5.7
			C129.3,13.5,129.3,13.3,129.2,13.2z"/>
	</g>
	<g>
		<path class="st0" d="M6.8,0l18.2,0c0,0,1.2,0.1,1.2,1.2s0,18.9,0,18.9s-0.1,1.2-1.2,1.2c-1.1,0-4.7,0-4.7,0S19,21.2,19,20.1
			c0-1.1,0-5,0-5s0-1-1-1c-1,0-4.9,0-4.9,0s-1.2,0.2-1.2-1.2s0-4.8,0-4.8s0-1.1-1.1-1.1s-4,0-4,0S5.6,7.3,5.6,5.9s0-5,0-5
			S5.8,0,6.8,0z"/>
		<path class="st0" d="M6,19H1.1C0.5,19,0,19.5,0,20.1V25c0,0.6,0.5,1.1,1.1,1.1H6c0.6,0,1.1-0.5,1.1-1.1v-4.9C7.1,19.5,6.6,19,6,19
			z"/>
		<path class="st0" d="M8.4,9.3H3.6c-0.6,0-1.1,0.5-1.1,1.1v4.9c0,0.6,0.5,1.1,1.1,1.1h4.8c0.6,0,1.1-0.5,1.1-1.1v-4.9
			C9.6,9.8,9,9.3,8.4,9.3z"/>
		<path class="st0" d="M15.6,16.5h-4.8c-0.6,0-1.1,0.5-1.1,1.1v4.9c0,0.6,0.5,1.1,1.1,1.1h4.8c0.6,0,1.1-0.5,1.1-1.1v-4.9
			C16.7,17.1,16.2,16.5,15.6,16.5z"/>
	</g>
</g>
</svg>
