<svg id="Camada_1" data-name="Camada 1" xmlns="http://www.w3.org/2000/svg" viewBox="0 0 184.56 34.67"><defs><style>.cls-1{fill:#fff;}.cls-2{fill:#0084f7;}</style></defs><path class="cls-1" d="M44.59,3.15c0-1.76,1-2.64,2.95-2.64s2.94.88,2.94,2.64a2.6,2.6,0,0,1-.73,2,3.13,3.13,0,0,1-2.21.7C45.57,5.82,44.59,4.93,44.59,3.15Zm4.23,25H46.23a1.41,1.41,0,0,1-1.41-1.41V9.7a1.41,1.41,0,0,1,1.41-1.41h2.59A1.42,1.42,0,0,1,50.24,9.7v17A1.42,1.42,0,0,1,48.82,28.15Z" transform="translate(-0.22 -0.16)"/><path class="cls-1" d="M67.84,6.87V1.92A1.42,1.42,0,0,1,69.26.51h2.61a1.41,1.41,0,0,1,1.41,1.41V26.74a1.41,1.41,0,0,1-1.41,1.41H70.08a1.39,1.39,0,0,1-1.31-.88l-.69-1.69h-.24a6.2,6.2,0,0,1-5.63,2.93,6.47,6.47,0,0,1-5.5-2.72,12.5,12.5,0,0,1-2-7.53q0-4.89,2-7.62a6.59,6.59,0,0,1,5.6-2.73,6.11,6.11,0,0,1,5.49,2.92M64.11,24.19a3.67,3.67,0,0,0,3-1.21,7,7,0,0,0,1.06-4.1v-.59a8.08,8.08,0,0,0-1-4.58A3.65,3.65,0,0,0,64,12.32a3.17,3.17,0,0,0-2.81,1.54,8.17,8.17,0,0,0-1,4.47,7.75,7.75,0,0,0,1,4.4A3.31,3.31,0,0,0,64.11,24.19Z" transform="translate(-0.22 -0.16)"/><path class="cls-1" d="M87.94,28.51a10.23,10.23,0,0,1-7.5-2.65q-2.7-2.64-2.7-7.5t2.5-7.72a8.87,8.87,0,0,1,6.9-2.73,8.76,8.76,0,0,1,6.56,2.4A9.09,9.09,0,0,1,96,16.94v1.5a1.13,1.13,0,0,1-1.13,1.13H83.23a5.25,5.25,0,0,0,1.37,3.61,4.83,4.83,0,0,0,3.59,1.3,14.73,14.73,0,0,0,3.39-.38,15.14,15.14,0,0,0,1.83-.55,1.12,1.12,0,0,1,1.51,1.06v1.77a1.12,1.12,0,0,1-.68,1,12.14,12.14,0,0,1-2.35.74A19.28,19.28,0,0,1,87.94,28.51Zm-.76-16.74a3.46,3.46,0,0,0-2.7,1.09,4.17,4.17,0,0,0-.88,1.67A1.12,1.12,0,0,0,84.69,16h5a1.12,1.12,0,0,0,1.1-1.39,3.77,3.77,0,0,0-.88-1.71A3.55,3.55,0,0,0,87.18,11.77Z" transform="translate(-0.22 -0.16)"/><path class="cls-1" d="M113.07,28.15l-1-2.7h-.14a8.07,8.07,0,0,1-2.82,2.39,9,9,0,0,1-3.78.67,6.1,6.1,0,0,1-4.5-1.64,6.25,6.25,0,0,1-1.64-4.65,5.25,5.25,0,0,1,2.21-4.67c1.47-1,3.7-1.55,6.67-1.66l2.58-.08a.89.89,0,0,0,.87-.89h0c0-2-1-3-3.09-3a12.9,12.9,0,0,0-4.65,1,1.13,1.13,0,0,1-1.42-.55l-.82-1.68a1.13,1.13,0,0,1,.58-1.54,16.49,16.49,0,0,1,6.52-1.28,9.48,9.48,0,0,1,6.13,1.74,6.45,6.45,0,0,1,2.13,5.3V28.15Zm-1.6-8A1.13,1.13,0,0,0,110.3,19l-.93,0a6.75,6.75,0,0,0-3.52.85,2.68,2.68,0,0,0-1.15,2.38c0,1.53.87,2.3,2.63,2.3a4.14,4.14,0,0,0,3-1.09,3.81,3.81,0,0,0,1.13-2.88Z" transform="translate(-0.22 -0.16)"/><path class="cls-1" d="M127.85,10.86a6.28,6.28,0,0,1,5.63-2.95A6.43,6.43,0,0,1,139,10.66a12.58,12.58,0,0,1,2,7.53q0,4.92-2,7.62a7.17,7.17,0,0,1-11.08.16h-.37l-.55,1.31a1.4,1.4,0,0,1-1.3.87h-1.79a1.41,1.41,0,0,1-1.41-1.41V1.92A1.41,1.41,0,0,1,123.84.51h2.6a1.41,1.41,0,0,1,1.41,1.41v5m3.89,5.31a3.39,3.39,0,0,0-2.93,1.24,7,7,0,0,0-1,4.07v.59a8.38,8.38,0,0,0,1,4.58,3.38,3.38,0,0,0,3,1.39,3,3,0,0,0,2.66-1.54,8.28,8.28,0,0,0,1-4.47,7.88,7.88,0,0,0-1-4.39A3.11,3.11,0,0,0,131.74,12.25Z" transform="translate(-0.22 -0.16)"/><path class="cls-1" d="M163.51,18.19q0,4.85-2.56,7.58a9.25,9.25,0,0,1-7.12,2.74,10,10,0,0,1-5.05-1.25,8.36,8.36,0,0,1-3.36-3.6,12.14,12.14,0,0,1-1.17-5.47q0-4.88,2.54-7.57a9.34,9.34,0,0,1,7.14-2.71,10,10,0,0,1,5,1.25,8.29,8.29,0,0,1,3.36,3.57A12,12,0,0,1,163.51,18.19Zm-13.73,0a8.42,8.42,0,0,0,1,4.46,3.49,3.49,0,0,0,3.16,1.51A3.41,3.41,0,0,0,157,22.65a8.48,8.48,0,0,0,.95-4.46,8.21,8.21,0,0,0-1-4.43,3.48,3.48,0,0,0-3.15-1.47,3.44,3.44,0,0,0-3.12,1.46A8.22,8.22,0,0,0,149.78,18.19Z" transform="translate(-0.22 -0.16)"/><path class="cls-1" d="M171.85,17.7l-4.75-7.22a1.41,1.41,0,0,1,1.18-2.19h2.89a1.13,1.13,0,0,1,1,.54l3,5a.57.57,0,0,0,1,0l3.08-5a1.11,1.11,0,0,1,1-.54h2.88a1.41,1.41,0,0,1,1.17,2.2l-4.79,7.2a.56.56,0,0,0,0,.63L184.54,26a1.42,1.42,0,0,1-1.18,2.2h-2.89a1.12,1.12,0,0,1-1-.54l-3.36-5.48a.57.57,0,0,0-1,0l-3.38,5.49a1.12,1.12,0,0,1-1,.53H168A1.41,1.41,0,0,1,166.78,26l5.07-7.64A.54.54,0,0,0,171.85,17.7Z" transform="translate(-0.22 -0.16)"/><path class="cls-2" d="M9.21.16H33.37A1.64,1.64,0,0,1,35,1.75V26.93a1.61,1.61,0,0,1-1.58,1.58H27.06s-1.58-.12-1.58-1.58V20.27a1.31,1.31,0,0,0-1.34-1.34H17.59a1.36,1.36,0,0,1-1.53-1.54V11.06a1.44,1.44,0,0,0-1.49-1.49H9.21S7.66,9.84,7.66,8V1.44A1.69,1.69,0,0,1,9.21.16Z" transform="translate(-0.22 -0.16)"/><rect class="cls-2" y="25.21" width="9.41" height="9.46" rx="1.51"/><rect class="cls-2" x="3.28" y="12.4" width="9.41" height="9.46" rx="1.51"/><rect class="cls-2" x="12.84" y="21.98" width="9.41" height="9.46" rx="1.51"/></svg>