<?xml version="1.0" encoding="utf-8"?>
<!-- Generator: Adobe Illustrator 24.1.1, SVG Export Plug-In . SVG Version: 6.00 Build 0)  -->
<svg version="1.1" id="Camada_1" xmlns="http://www.w3.org/2000/svg" xmlns:xlink="http://www.w3.org/1999/xlink" x="0px" y="0px"
	 viewBox="0 0 36.1 36.1" style="enable-background:new 0 0 36.1 36.1;" xml:space="preserve">
<style type="text/css">
	.st0{fill:#2570FF;}
	.st1{fill:#FFFFFF;}
</style>
<circle class="st0" cx="18.1" cy="18.1" r="18"/>
<path class="st1" d="M13.4,18.1c0-1.3,0-2.5,0-3.7c0-0.1,0.2-0.2,0.3-0.3c0.5,0,1,0,1.4,0c0.3,0,0.5-0.2,0.5-0.5
	c0-0.7,0-1.4,0.1-2.2c0.3-2,1.8-3.2,3.8-3.4c1,0.1,2,0.1,3,0.1c0.2,0,0.4,0.1,0.4,0.4c0,1.2,0,2.4,0,3.7c-0.6,0-1.2,0-1.7,0
	c-1,0-1.6,0.8-1.2,1.7c0.1,0.1,0.2,0.2,0.4,0.2c0.7,0,1.4,0,2.1,0c0.2,0,0.4,0,0.4,0.3c0,1.2,0,2.4,0,3.7c-0.7,0-1.3,0-2,0
	c-1,0-1,0-1,1c0,2.8,0,5.6,0,8.4c0,0.4-0.1,0.6-0.6,0.6c-1.1,0-2.1,0-3.2,0c-0.4,0-0.6-0.2-0.6-0.6c0-2.9,0-5.9,0-8.8
	c0-0.4-0.1-0.6-0.6-0.6C14.5,18.2,13.9,18.1,13.4,18.1z"/>
</svg>
