<?xml version="1.0" encoding="utf-8"?>
<!-- Generator: Adobe Illustrator 24.1.1, SVG Export Plug-In . SVG Version: 6.00 Build 0)  -->
<svg version="1.1" id="Camada_1" xmlns="http://www.w3.org/2000/svg" xmlns:xlink="http://www.w3.org/1999/xlink" x="0px" y="0px"
	 viewBox="0 0 36.1 36.1" style="enable-background:new 0 0 36.1 36.1;" xml:space="preserve">
<style type="text/css">
	.st0{fill:#2570FF;}
	.st1{fill:#FFFFFF;}
</style>
<circle class="st0" cx="18.1" cy="18.1" r="18"/>
<g>
	<path class="st1" d="M18.1,7.6c1.5,0,3.1,0,4.6,0c1.4,0,2.7,0.4,3.8,1.3c1,0.8,1.7,1.8,1.9,3.2c0.1,0.4,0.2,1,0.2,1.4
		c0,3.1,0,6.2,0,9.3c0,2.3-1.1,4-3,5.2c-0.9,0.5-1.8,0.7-2.7,0.7c-3.2,0-6.3,0-9.5,0c-2.1,0-3.8-1-4.9-2.8c-0.5-0.9-0.8-1.9-0.9-3
		c0-3.2,0-6.3,0-9.5c0-2.3,1.1-3.9,3.1-5.1c0.9-0.5,1.8-0.7,2.8-0.7C15,7.6,16.6,7.6,18.1,7.6z M26.8,18.1c0-1.5,0-3.1,0-4.6
		c0-0.6-0.1-1.1-0.4-1.8c-0.7-1.5-1.9-2.3-3.7-2.3c-3.1,0-6.2,0-9.3,0c-1.1,0-1.9,0.4-2.6,1c-0.9,0.8-1.3,1.8-1.3,3.1
		c0,3.1,0,6,0,9.1c0,0.3,0,0.6,0.1,0.9c0.3,1.5,1.1,2.5,2.5,3.1c0.5,0.2,1.1,0.3,1.6,0.3c3,0,5.9,0,8.8,0c0.3,0,0.5,0,0.7,0
		c1.3-0.1,2.3-0.7,3-1.8c0.4-0.7,0.6-1.4,0.6-2.3C26.8,21.2,26.8,19.6,26.8,18.1z"/>
	<path class="st1" d="M18.2,23.5c-3,0.1-5.4-2.3-5.5-5.3c-0.1-3,2.3-5.4,5.3-5.5c3-0.1,5.4,2.3,5.5,5.3
		C23.6,20.9,21.2,23.4,18.2,23.5z M21.7,18.1c0-1.9-1.6-3.6-3.6-3.5c-1.9,0-3.5,1.6-3.5,3.5s1.6,3.5,3.5,3.6
		C20.1,21.6,21.7,20,21.7,18.1z"/>
	<path class="st1" d="M23.8,13.8c-0.8,0-1.4-0.6-1.4-1.4c0-0.8,0.6-1.4,1.4-1.3c0.7,0,1.3,0.6,1.3,1.4
		C25.1,13.2,24.5,13.8,23.8,13.8z"/>
</g>
</svg>
