<svg id="Camada_1" data-name="Camada 1" xmlns="http://www.w3.org/2000/svg" viewBox="0 0 243.49 57.61"><defs><style>.cls-1,.cls-2{fill:#292929;}.cls-2{font-size:12.48px;font-family:OpenSans, Open Sans;}.cls-3{fill:#0084f7;}</style></defs><path class="cls-1" d="M73.92,4.38c0-2.12,1.18-3.19,3.55-3.19S81,2.26,81,4.38a3.11,3.11,0,0,1-.89,2.36,3.7,3.7,0,0,1-2.66.85Q73.91,7.59,73.92,4.38ZM79,34.46H75.9a1.7,1.7,0,0,1-1.7-1.7V12.26a1.7,1.7,0,0,1,1.7-1.7H79a1.7,1.7,0,0,1,1.7,1.7v20.5A1.7,1.7,0,0,1,79,34.46Z" transform="translate(-0.25 -1.19)"/><path class="cls-1" d="M101.91,8.85V2.9a1.71,1.71,0,0,1,1.7-1.71h3.14a1.71,1.71,0,0,1,1.7,1.71V32.76a1.7,1.7,0,0,1-1.7,1.7h-2.16A1.7,1.7,0,0,1,103,33.4l-.83-2h-.27a7.46,7.46,0,0,1-6.78,3.53,7.76,7.76,0,0,1-6.62-3.27q-2.4-3.27-2.4-9.06t2.44-9.17a8,8,0,0,1,6.75-3.28,7.33,7.33,0,0,1,6.6,3.51M97.42,29.7a4.41,4.41,0,0,0,3.66-1.46c.78-1,1.2-2.61,1.28-4.94v-.7q0-3.86-1.19-5.52a4.42,4.42,0,0,0-3.86-1.67,3.85,3.85,0,0,0-3.39,1.85,10,10,0,0,0-1.21,5.38,9.36,9.36,0,0,0,1.22,5.29A4,4,0,0,0,97.42,29.7Z" transform="translate(-0.25 -1.19)"/><path class="cls-1" d="M126.09,34.89q-5.78,0-9-3.18t-3.25-9q0-6,3-9.29a10.72,10.72,0,0,1,8.31-3.28q5.07,0,7.89,2.89t2.82,8v1.81a1.36,1.36,0,0,1-1.36,1.36H120.42a6.26,6.26,0,0,0,1.65,4.34A5.81,5.81,0,0,0,126.39,30a17.84,17.84,0,0,0,4.08-.45,18.28,18.28,0,0,0,2.2-.67,1.36,1.36,0,0,1,1.82,1.28v2.13a1.36,1.36,0,0,1-.82,1.25,15.54,15.54,0,0,1-2.83.89A22.92,22.92,0,0,1,126.09,34.89Zm-.92-20.14a4.13,4.13,0,0,0-3.25,1.32,5,5,0,0,0-1.06,2,1.36,1.36,0,0,0,1.31,1.72h6a1.36,1.36,0,0,0,1.32-1.69,4.43,4.43,0,0,0-1.06-2A4.26,4.26,0,0,0,125.17,14.75Z" transform="translate(-0.25 -1.19)"/><path class="cls-1" d="M156.32,34.46l-1.26-3.25h-.17a9.56,9.56,0,0,1-3.39,2.88,11,11,0,0,1-4.54.8,7.29,7.29,0,0,1-5.42-2,7.53,7.53,0,0,1-2-5.6,6.32,6.32,0,0,1,2.66-5.61c1.78-1.2,4.45-1.87,8-2l3.1-.09a1.09,1.09,0,0,0,1.05-1.08h0q0-3.64-3.72-3.64a15.53,15.53,0,0,0-5.59,1.25,1.35,1.35,0,0,1-1.71-.67l-1-2a1.37,1.37,0,0,1,.7-1.86,19.69,19.69,0,0,1,7.84-1.54q4.81,0,7.38,2.09c1.71,1.4,2.57,3.52,2.57,6.38V34.46ZM154.4,24.8A1.36,1.36,0,0,0,153,23.44l-1.11,0a8.1,8.1,0,0,0-4.24,1,3.22,3.22,0,0,0-1.39,2.87c0,1.83,1.06,2.75,3.17,2.75a5,5,0,0,0,3.62-1.3,4.56,4.56,0,0,0,1.36-3.46Z" transform="translate(-0.25 -1.19)"/><path class="cls-1" d="M174.11,13.66a7.55,7.55,0,0,1,6.78-3.55,7.75,7.75,0,0,1,6.63,3.3q2.39,3.31,2.39,9.06,0,5.93-2.47,9.17a8.62,8.62,0,0,1-13.33.19h-.45L173,33.41a1.71,1.71,0,0,1-1.57,1.05h-2.15a1.7,1.7,0,0,1-1.7-1.7V2.9a1.71,1.71,0,0,1,1.7-1.71h3.12a1.71,1.71,0,0,1,1.7,1.71v6m4.68,6.4a4.1,4.1,0,0,0-3.52,1.48c-.75,1-1.13,2.63-1.16,4.91v.71q0,3.84,1.15,5.51a4.08,4.08,0,0,0,3.62,1.67,3.66,3.66,0,0,0,3.2-1.85,10,10,0,0,0,1.18-5.38,9.57,9.57,0,0,0-1.19-5.29A3.77,3.77,0,0,0,178.79,15.33Z" transform="translate(-0.25 -1.19)"/><path class="cls-1" d="M217,22.47q0,5.84-3.08,9.13t-8.57,3.29a11.94,11.94,0,0,1-6.07-1.51,10,10,0,0,1-4-4.33,14.53,14.53,0,0,1-1.41-6.58q0-5.87,3.05-9.11t8.6-3.25a12,12,0,0,1,6.07,1.5,10,10,0,0,1,4,4.3A14.38,14.38,0,0,1,217,22.47Zm-16.52,0a10,10,0,0,0,1.16,5.37,4.17,4.17,0,0,0,3.8,1.81,4.1,4.1,0,0,0,3.75-1.8,10.23,10.23,0,0,0,1.14-5.38,9.84,9.84,0,0,0-1.15-5.32,4.91,4.91,0,0,0-7.55,0A9.9,9.9,0,0,0,200.5,22.47Z" transform="translate(-0.25 -1.19)"/><path class="cls-1" d="M227.06,21.88l-5.71-8.68a1.7,1.7,0,0,1,1.42-2.64h3.47a1.38,1.38,0,0,1,1.17.65l3.66,6a.68.68,0,0,0,1.16,0l3.7-6a1.38,1.38,0,0,1,1.16-.65h3.46A1.7,1.7,0,0,1,242,13.2l-5.77,8.68a.66.66,0,0,0,0,.75l6.13,9.19a1.7,1.7,0,0,1-1.42,2.64h-3.48a1.35,1.35,0,0,1-1.16-.65l-4-6.59a.68.68,0,0,0-1.16,0L227,33.82a1.37,1.37,0,0,1-1.16.64h-3.46A1.7,1.7,0,0,1,221,31.82l6.1-9.19A.68.68,0,0,0,227.06,21.88Z" transform="translate(-0.25 -1.19)"/><text class="cls-2" transform="translate(73.56 47.1)">acelerando ideias inovadoras</text><path class="cls-3" d="M15.19,1.19H55.32S58,1.36,58,3.83V45.66a2.68,2.68,0,0,1-2.63,2.63H44.85s-2.63-.19-2.63-2.63V34.59A2.17,2.17,0,0,0,40,32.37H29.12a2.26,2.26,0,0,1-2.55-2.55V19.3a2.4,2.4,0,0,0-2.48-2.48h-8.9s-2.57.45-2.57-2.57V3.31A2.79,2.79,0,0,1,15.19,1.19Z" transform="translate(-0.25 -1.19)"/><rect class="cls-3" y="41.89" width="15.64" height="15.72" rx="2.5"/><rect class="cls-3" x="5.45" y="20.6" width="15.64" height="15.72" rx="2.5"/><rect class="cls-3" x="21.33" y="36.53" width="15.64" height="15.72" rx="2.5"/></svg>